G04 Layer_Color=16711935*
%FSLAX44Y44*%
%MOMM*%
G71*
G01*
G75*
%ADD21C,0.2000*%
%ADD22C,0.1000*%
D21*
X207210Y-106480D02*
X232210D01*
Y-56480D01*
X207210D02*
X232210D01*
X207210Y-106480D02*
Y-56480D01*
X378660Y-59890D02*
X403660D01*
X378660Y-109890D02*
Y-59890D01*
Y-109890D02*
X403660D01*
Y-59890D01*
X25920Y-54850D02*
X90920D01*
X25920Y-110250D02*
Y-54850D01*
Y-110250D02*
X90920D01*
Y-54850D01*
X432320Y-110250D02*
X497320D01*
Y-54850D01*
X432320D02*
X497320D01*
X432320Y-110250D02*
Y-54850D01*
D22*
X190100Y-82390D02*
G03*
X190100Y-82390I-25000J0D01*
G01*
X356470Y-81120D02*
G03*
X356470Y-81120I-25000J0D01*
G01*
X120650Y-59460D02*
Y-29460D01*
Y-124460D02*
Y-94460D01*
X113150Y-86960D02*
X120650Y-94460D01*
X113150D02*
X128150D01*
Y-59460D01*
X113150D02*
X128150D01*
X113150Y-94460D02*
Y-59460D01*
X247430Y-119260D02*
X260180Y-132010D01*
X247430D02*
X293430D01*
Y-28010D01*
X247430D02*
X293430D01*
X247430Y-132010D02*
Y-28010D01*
M02*
