G04 Layer_Physical_Order=1*
G04 Layer_Color=255*
%FSLAX44Y44*%
%MOMM*%
G71*
G01*
G75*
%ADD10C,0.2540*%
%ADD11C,1.2000*%
%ADD12C,1.1000*%
%ADD13R,1.1000X1.1000*%
%ADD14C,1.1500*%
%ADD15R,1.1500X1.1500*%
%ADD16C,1.8000*%
%ADD17R,1.2000X1.2000*%
%ADD18C,1.9800*%
%ADD19R,1.9800X1.9800*%
%ADD20C,1.5000*%
G36*
X520000Y-7780D02*
X518730Y-8033D01*
X518040Y-6367D01*
X516431Y-4269D01*
X514333Y-2660D01*
X511891Y-1648D01*
X509270Y-1303D01*
X506649Y-1648D01*
X504207Y-2660D01*
X502109Y-4269D01*
X500500Y-6367D01*
X499488Y-8809D01*
X499143Y-11430D01*
X499488Y-14051D01*
X500500Y-16493D01*
X502109Y-18591D01*
X504207Y-20200D01*
X506649Y-21212D01*
X509270Y-21557D01*
X511891Y-21212D01*
X514333Y-20200D01*
X516431Y-18591D01*
X518040Y-16493D01*
X518730Y-14827D01*
X520000Y-15080D01*
Y-144940D01*
X518730Y-145193D01*
X518040Y-143527D01*
X516431Y-141429D01*
X514333Y-139820D01*
X511891Y-138808D01*
X509270Y-138463D01*
X506649Y-138808D01*
X504207Y-139820D01*
X502109Y-141429D01*
X500500Y-143527D01*
X499488Y-145969D01*
X499143Y-148590D01*
X499488Y-151211D01*
X500500Y-153653D01*
X502109Y-155751D01*
X504207Y-157360D01*
X506649Y-158372D01*
X509270Y-158717D01*
X511891Y-158372D01*
X514333Y-157360D01*
X516431Y-155751D01*
X518040Y-153653D01*
X518730Y-151987D01*
X520000Y-152240D01*
Y-160000D01*
X0D01*
Y0D01*
X520000D01*
Y-7780D01*
D02*
G37*
%LPC*%
G36*
X389890Y-88944D02*
X388931Y-89070D01*
X386853Y-89931D01*
X385069Y-91299D01*
X383700Y-93083D01*
X382840Y-95161D01*
X382714Y-96120D01*
X389890D01*
Y-88944D01*
D02*
G37*
G36*
X330200Y-82926D02*
X329306Y-83043D01*
X327289Y-83879D01*
X325558Y-85208D01*
X324229Y-86939D01*
X323393Y-88956D01*
X323276Y-89850D01*
X330200D01*
Y-82926D01*
D02*
G37*
G36*
Y-92390D02*
X323276D01*
X323393Y-93284D01*
X324229Y-95301D01*
X325558Y-97032D01*
X327289Y-98361D01*
X329306Y-99197D01*
X330200Y-99314D01*
Y-92390D01*
D02*
G37*
G36*
X339664D02*
X332740D01*
Y-99314D01*
X333634Y-99197D01*
X335651Y-98361D01*
X337383Y-97032D01*
X338711Y-95301D01*
X339547Y-93284D01*
X339664Y-92390D01*
D02*
G37*
G36*
X463550Y-58378D02*
X461808Y-58607D01*
X459000Y-59770D01*
X456590Y-61620D01*
X454740Y-64030D01*
X453938Y-65965D01*
X418700D01*
X417214Y-66261D01*
X415953Y-67103D01*
X393812Y-89245D01*
X393389Y-89070D01*
X392430Y-88944D01*
Y-96120D01*
X399607D01*
X399480Y-95161D01*
X399305Y-94739D01*
X420309Y-73735D01*
X453938D01*
X454740Y-75670D01*
X456590Y-78080D01*
X459000Y-79930D01*
X461808Y-81093D01*
X463550Y-81322D01*
Y-69850D01*
Y-58378D01*
D02*
G37*
G36*
X57150Y-71120D02*
X46948D01*
X47177Y-72863D01*
X48340Y-75670D01*
X50190Y-78080D01*
X52600Y-79930D01*
X55408Y-81093D01*
X57150Y-81322D01*
Y-71120D01*
D02*
G37*
G36*
X332740Y-82926D02*
Y-89850D01*
X339664D01*
X339547Y-88956D01*
X338711Y-86939D01*
X337383Y-85208D01*
X335651Y-83879D01*
X333634Y-83043D01*
X332740Y-82926D01*
D02*
G37*
G36*
X120650Y-20846D02*
X118421Y-21140D01*
X116343Y-22000D01*
X114559Y-23369D01*
X113190Y-25153D01*
X112330Y-27231D01*
X112036Y-29460D01*
X112330Y-31689D01*
X113190Y-33767D01*
X113720Y-34457D01*
X63368Y-84809D01*
X61432Y-84007D01*
X58420Y-83610D01*
X55408Y-84007D01*
X52600Y-85170D01*
X50190Y-87020D01*
X48340Y-89430D01*
X47177Y-92238D01*
X46781Y-95250D01*
X47177Y-98263D01*
X48340Y-101070D01*
X50190Y-103480D01*
X52600Y-105330D01*
X55408Y-106493D01*
X58420Y-106889D01*
X61432Y-106493D01*
X64240Y-105330D01*
X66650Y-103480D01*
X68500Y-101070D01*
X69663Y-98263D01*
X70060Y-95250D01*
X69663Y-92238D01*
X68861Y-90302D01*
X119719Y-39445D01*
X120650D01*
X122137Y-39149D01*
X123397Y-38307D01*
X124081Y-37282D01*
X124957Y-36920D01*
X126741Y-35551D01*
X128110Y-33767D01*
X128970Y-31689D01*
X129264Y-29460D01*
X128970Y-27231D01*
X128110Y-25153D01*
X126741Y-23369D01*
X124957Y-22000D01*
X122879Y-21140D01*
X120650Y-20846D01*
D02*
G37*
G36*
X290510Y-81280D02*
X278130D01*
X265750D01*
X266010Y-83258D01*
X267264Y-86284D01*
X269258Y-88882D01*
X271856Y-90876D01*
X274086Y-91800D01*
X273834Y-93070D01*
X265690D01*
Y-117950D01*
X290570D01*
Y-93070D01*
X282426D01*
X282174Y-91800D01*
X284404Y-90876D01*
X287002Y-88882D01*
X288996Y-86284D01*
X290250Y-83258D01*
X290510Y-81280D01*
D02*
G37*
G36*
X464820Y-83610D02*
X461808Y-84007D01*
X459000Y-85170D01*
X456590Y-87020D01*
X454740Y-89430D01*
X453577Y-92238D01*
X453180Y-95250D01*
X453577Y-98263D01*
X454740Y-101070D01*
X456590Y-103480D01*
X459000Y-105330D01*
X461808Y-106493D01*
X464820Y-106889D01*
X467832Y-106493D01*
X470640Y-105330D01*
X473050Y-103480D01*
X474900Y-101070D01*
X476063Y-98263D01*
X476460Y-95250D01*
X476063Y-92238D01*
X474900Y-89430D01*
X473050Y-87020D01*
X470640Y-85170D01*
X467832Y-84007D01*
X464820Y-83610D01*
D02*
G37*
G36*
X11430Y-138463D02*
X8809Y-138808D01*
X6367Y-139820D01*
X4269Y-141429D01*
X2660Y-143527D01*
X1648Y-145969D01*
X1303Y-148590D01*
X1648Y-151211D01*
X2660Y-153653D01*
X4269Y-155751D01*
X6367Y-157360D01*
X8809Y-158372D01*
X11430Y-158717D01*
X14051Y-158372D01*
X16493Y-157360D01*
X18591Y-155751D01*
X20200Y-153653D01*
X21212Y-151211D01*
X21557Y-148590D01*
X21212Y-145969D01*
X20200Y-143527D01*
X18591Y-141429D01*
X16493Y-139820D01*
X14051Y-138808D01*
X11430Y-138463D01*
D02*
G37*
G36*
X129190Y-115920D02*
X112110D01*
Y-133000D01*
X129190D01*
Y-115920D01*
D02*
G37*
G36*
X219710Y-85366D02*
X217481Y-85660D01*
X215403Y-86520D01*
X213619Y-87889D01*
X212250Y-89673D01*
X211390Y-91751D01*
X211096Y-93980D01*
X211390Y-96209D01*
X212250Y-98287D01*
X213619Y-100071D01*
X215403Y-101440D01*
X217481Y-102300D01*
X219710Y-102594D01*
X221939Y-102300D01*
X224017Y-101440D01*
X225801Y-100071D01*
X227170Y-98287D01*
X228030Y-96209D01*
X228324Y-93980D01*
X228030Y-91751D01*
X227170Y-89673D01*
X225801Y-87889D01*
X224017Y-86520D01*
X221939Y-85660D01*
X219710Y-85366D01*
D02*
G37*
G36*
X173140Y-84350D02*
X157060D01*
Y-100430D01*
X173140D01*
Y-84350D01*
D02*
G37*
G36*
X389890Y-98660D02*
X382714D01*
X382840Y-99620D01*
X383700Y-101697D01*
X385069Y-103481D01*
X386853Y-104850D01*
X388931Y-105710D01*
X389890Y-105837D01*
Y-98660D01*
D02*
G37*
G36*
X399607D02*
X392430D01*
Y-105837D01*
X393389Y-105710D01*
X395467Y-104850D01*
X397251Y-103481D01*
X398620Y-101697D01*
X399480Y-99620D01*
X399607Y-98660D01*
D02*
G37*
G36*
X69892Y-71120D02*
X59690D01*
Y-81322D01*
X61432Y-81093D01*
X64240Y-79930D01*
X66650Y-78080D01*
X68500Y-75670D01*
X69663Y-72863D01*
X69892Y-71120D01*
D02*
G37*
G36*
X57150Y-58378D02*
X55408Y-58607D01*
X52600Y-59770D01*
X50190Y-61620D01*
X48340Y-64030D01*
X47177Y-66838D01*
X46948Y-68580D01*
X57150D01*
Y-58378D01*
D02*
G37*
G36*
X59690D02*
Y-68580D01*
X69892D01*
X69663Y-66838D01*
X68500Y-64030D01*
X66650Y-61620D01*
X64240Y-59770D01*
X61432Y-58607D01*
X59690Y-58378D01*
D02*
G37*
G36*
X163830Y-64448D02*
X163001Y-64557D01*
X161045Y-65367D01*
X159366Y-66656D01*
X158077Y-68335D01*
X157267Y-70291D01*
X157158Y-71120D01*
X163830D01*
Y-64448D01*
D02*
G37*
G36*
X166370D02*
Y-71120D01*
X173042D01*
X172933Y-70291D01*
X172123Y-68335D01*
X170834Y-66656D01*
X169155Y-65367D01*
X167199Y-64557D01*
X166370Y-64448D01*
D02*
G37*
G36*
X220980Y-60533D02*
Y-67710D01*
X228157D01*
X228030Y-66750D01*
X227170Y-64673D01*
X225801Y-62889D01*
X224017Y-61520D01*
X221939Y-60660D01*
X220980Y-60533D01*
D02*
G37*
G36*
X11430Y-1303D02*
X8809Y-1648D01*
X6367Y-2660D01*
X4269Y-4269D01*
X2660Y-6367D01*
X1648Y-8809D01*
X1303Y-11430D01*
X1648Y-14051D01*
X2660Y-16493D01*
X4269Y-18591D01*
X6367Y-20200D01*
X8809Y-21212D01*
X11430Y-21557D01*
X14051Y-21212D01*
X16493Y-20200D01*
X18591Y-18591D01*
X20200Y-16493D01*
X21212Y-14051D01*
X21557Y-11430D01*
X21212Y-8809D01*
X20200Y-6367D01*
X18591Y-4269D01*
X16493Y-2660D01*
X14051Y-1648D01*
X11430Y-1303D01*
D02*
G37*
G36*
X466090Y-58378D02*
Y-68580D01*
X476292D01*
X476063Y-66838D01*
X474900Y-64030D01*
X473050Y-61620D01*
X470640Y-59770D01*
X467832Y-58607D01*
X466090Y-58378D01*
D02*
G37*
G36*
X218440Y-60533D02*
X217481Y-60660D01*
X215403Y-61520D01*
X213619Y-62889D01*
X212250Y-64673D01*
X211390Y-66750D01*
X211264Y-67710D01*
X218440D01*
Y-60533D01*
D02*
G37*
G36*
X163830Y-73660D02*
X157158D01*
X157267Y-74489D01*
X158077Y-76445D01*
X159366Y-78124D01*
X161045Y-79413D01*
X163001Y-80223D01*
X163830Y-80332D01*
Y-73660D01*
D02*
G37*
G36*
X173042D02*
X166370D01*
Y-80332D01*
X167199Y-80223D01*
X169155Y-79413D01*
X170834Y-78124D01*
X172123Y-76445D01*
X172933Y-74489D01*
X173042Y-73660D01*
D02*
G37*
G36*
X476292Y-71120D02*
X466090D01*
Y-81322D01*
X467832Y-81093D01*
X470640Y-79930D01*
X473050Y-78080D01*
X474900Y-75670D01*
X476063Y-72863D01*
X476292Y-71120D01*
D02*
G37*
G36*
X391160Y-63776D02*
X388931Y-64070D01*
X386853Y-64930D01*
X385069Y-66299D01*
X383700Y-68083D01*
X382840Y-70161D01*
X382546Y-72390D01*
X382840Y-74619D01*
X383700Y-76697D01*
X385069Y-78481D01*
X386853Y-79850D01*
X388931Y-80710D01*
X391160Y-81004D01*
X393389Y-80710D01*
X395467Y-79850D01*
X397251Y-78481D01*
X398620Y-76697D01*
X399480Y-74619D01*
X399774Y-72390D01*
X399480Y-70161D01*
X398620Y-68083D01*
X397251Y-66299D01*
X395467Y-64930D01*
X393389Y-64070D01*
X391160Y-63776D01*
D02*
G37*
G36*
X218440Y-70250D02*
X211264D01*
X211390Y-71209D01*
X212250Y-73287D01*
X213619Y-75071D01*
X215403Y-76439D01*
X217481Y-77300D01*
X218440Y-77426D01*
Y-70250D01*
D02*
G37*
G36*
X228157D02*
X220980D01*
Y-77426D01*
X221939Y-77300D01*
X224017Y-76439D01*
X225801Y-75071D01*
X227170Y-73287D01*
X228030Y-71209D01*
X228157Y-70250D01*
D02*
G37*
G36*
X339760Y-62830D02*
X323180D01*
Y-79410D01*
X339760D01*
Y-62830D01*
D02*
G37*
G36*
X278130Y-41963D02*
X274883Y-42390D01*
X271856Y-43644D01*
X269258Y-45638D01*
X267264Y-48236D01*
X266010Y-51262D01*
X265583Y-54510D01*
X266010Y-57757D01*
X267264Y-60784D01*
X269258Y-63382D01*
X271856Y-65376D01*
X274883Y-66630D01*
Y-67890D01*
X271856Y-69144D01*
X269258Y-71138D01*
X267264Y-73736D01*
X266010Y-76762D01*
X265750Y-78740D01*
X278130D01*
X290510D01*
X290250Y-76762D01*
X288996Y-73736D01*
X287002Y-71138D01*
X284404Y-69144D01*
X281378Y-67890D01*
Y-66630D01*
X284404Y-65376D01*
X287002Y-63382D01*
X288996Y-60784D01*
X290250Y-57757D01*
X290677Y-54510D01*
X290250Y-51262D01*
X288996Y-48236D01*
X287002Y-45638D01*
X284404Y-43644D01*
X281378Y-42390D01*
X278130Y-41963D01*
D02*
G37*
%LPD*%
D10*
X391160Y-97390D02*
X418700Y-69850D01*
X464820D01*
X120650Y-35560D02*
Y-29460D01*
X58420Y-95250D02*
X118110Y-35560D01*
X120650D01*
D11*
X219710Y-68980D02*
D03*
Y-93980D02*
D03*
X391160Y-97390D02*
D03*
Y-72390D02*
D03*
X120650Y-29460D02*
D03*
D12*
X165100Y-72390D02*
D03*
D13*
Y-92390D02*
D03*
D14*
X331470Y-91120D02*
D03*
D15*
Y-71120D02*
D03*
D16*
X58420Y-95250D02*
D03*
Y-69850D02*
D03*
X464820D02*
D03*
Y-95250D02*
D03*
D17*
X120650Y-124460D02*
D03*
D18*
X278130Y-54510D02*
D03*
Y-80010D02*
D03*
D19*
Y-105510D02*
D03*
D20*
X11430Y-11430D02*
D03*
Y-148590D02*
D03*
X509270D02*
D03*
Y-11430D02*
D03*
M02*
