G04 Layer_Color=65535*
%FSLAX44Y44*%
%MOMM*%
G71*
G01*
G75*
%ADD21C,0.2000*%
%ADD22C,0.1000*%
D21*
X190100Y-82390D02*
G03*
X190100Y-82390I-25000J0D01*
G01*
X356470Y-81120D02*
G03*
X356470Y-81120I-25000J0D01*
G01*
X120650Y-59460D02*
Y-38960D01*
Y-114960D02*
Y-94460D01*
X113150Y-86960D02*
X120650Y-94460D01*
X113150D02*
X128150D01*
Y-59460D01*
X113150D02*
X128150D01*
X113150Y-94460D02*
Y-59460D01*
X247430Y-132010D02*
X278130D01*
X247430D02*
Y-28010D01*
X293430D01*
X353312Y-143133D02*
X347980D01*
Y-151130D01*
X353312D01*
X347980Y-147131D02*
X350646D01*
X355977Y-151130D02*
Y-145798D01*
X359976D01*
X361309Y-147131D01*
Y-151130D01*
X366641Y-153796D02*
X367974D01*
X369306Y-152463D01*
Y-145798D01*
X365308D01*
X363975Y-147131D01*
Y-149797D01*
X365308Y-151130D01*
X369306D01*
X371972D02*
X374638D01*
X373305D01*
Y-145798D01*
X371972D01*
X378637Y-151130D02*
Y-145798D01*
X382635D01*
X383968Y-147131D01*
Y-151130D01*
X390633D02*
X387967D01*
X386634Y-149797D01*
Y-147131D01*
X387967Y-145798D01*
X390633D01*
X391966Y-147131D01*
Y-148464D01*
X386634D01*
X398630Y-151130D02*
X395965D01*
X394632Y-149797D01*
Y-147131D01*
X395965Y-145798D01*
X398630D01*
X399963Y-147131D01*
Y-148464D01*
X394632D01*
X402629Y-145798D02*
Y-151130D01*
Y-148464D01*
X403962Y-147131D01*
X405295Y-145798D01*
X406628D01*
X410626Y-151130D02*
X413292D01*
X411959D01*
Y-145798D01*
X410626D01*
X417291Y-151130D02*
Y-145798D01*
X421290D01*
X422623Y-147131D01*
Y-151130D01*
X427954Y-153796D02*
X429287D01*
X430620Y-152463D01*
Y-145798D01*
X426621D01*
X425288Y-147131D01*
Y-149797D01*
X426621Y-151130D01*
X430620D01*
X441283D02*
Y-143133D01*
X443949Y-145798D01*
X446615Y-143133D01*
Y-151130D01*
X449281D02*
X451946D01*
X450614D01*
Y-145798D01*
X449281D01*
X455945Y-151130D02*
Y-145798D01*
X459944D01*
X461277Y-147131D01*
Y-151130D01*
X469274Y-143133D02*
Y-151130D01*
X465275D01*
X463943Y-149797D01*
Y-147131D01*
X465275Y-145798D01*
X469274D01*
X471940Y-151130D02*
X475939D01*
X477272Y-149797D01*
X475939Y-148464D01*
X473273D01*
X471940Y-147131D01*
X473273Y-145798D01*
X477272D01*
X483936Y-151130D02*
X481270D01*
X479937Y-149797D01*
Y-147131D01*
X481270Y-145798D01*
X483936D01*
X485269Y-147131D01*
Y-148464D01*
X479937D01*
X489268Y-144466D02*
Y-145798D01*
X487935D01*
X490601D01*
X489268D01*
Y-149797D01*
X490601Y-151130D01*
X142238Y-38293D02*
X140905Y-36961D01*
X138239D01*
X136906Y-38293D01*
Y-43625D01*
X138239Y-44958D01*
X140905D01*
X142238Y-43625D01*
X144903Y-44958D02*
X147569D01*
X146236D01*
Y-36961D01*
X144903Y-38293D01*
X203960Y-32197D02*
X202627Y-30865D01*
X199961D01*
X198628Y-32197D01*
Y-37529D01*
X199961Y-38862D01*
X202627D01*
X203960Y-37529D01*
X211957Y-38862D02*
X206625D01*
X211957Y-33530D01*
Y-32197D01*
X210624Y-30865D01*
X207958D01*
X206625Y-32197D01*
X308608Y-37023D02*
X307275Y-35691D01*
X304609D01*
X303276Y-37023D01*
Y-42355D01*
X304609Y-43688D01*
X307275D01*
X308608Y-42355D01*
X311273Y-37023D02*
X312606Y-35691D01*
X315272D01*
X316605Y-37023D01*
Y-38356D01*
X315272Y-39689D01*
X313939D01*
X315272D01*
X316605Y-41022D01*
Y-42355D01*
X315272Y-43688D01*
X312606D01*
X311273Y-42355D01*
X375410Y-35754D02*
X374077Y-34421D01*
X371411D01*
X370078Y-35754D01*
Y-41085D01*
X371411Y-42418D01*
X374077D01*
X375410Y-41085D01*
X382074Y-42418D02*
Y-34421D01*
X378075Y-38419D01*
X383407D01*
X111506Y-5719D02*
Y-13716D01*
X115505D01*
X116838Y-12383D01*
Y-7052D01*
X115505Y-5719D01*
X111506D01*
X119503Y-13716D02*
X122169D01*
X120836D01*
Y-5719D01*
X119503Y-7052D01*
X246634Y-10291D02*
X249300D01*
X247967D01*
Y-18288D01*
X246634D01*
X249300D01*
X258630Y-11624D02*
X257297Y-10291D01*
X254631D01*
X253298Y-11624D01*
Y-16955D01*
X254631Y-18288D01*
X257297D01*
X258630Y-16955D01*
X261296Y-18288D02*
X263962D01*
X262629D01*
Y-10291D01*
X261296Y-11624D01*
X22858Y-29341D02*
X20192D01*
X21525D01*
Y-36005D01*
X20192Y-37338D01*
X18859D01*
X17526Y-36005D01*
X25523Y-37338D02*
X28189D01*
X26856D01*
Y-29341D01*
X25523Y-30673D01*
X429258Y-29341D02*
X426592D01*
X427925D01*
Y-36005D01*
X426592Y-37338D01*
X425259D01*
X423926Y-36005D01*
X437255Y-37338D02*
X431923D01*
X437255Y-32006D01*
Y-30673D01*
X435922Y-29341D01*
X433256D01*
X431923Y-30673D01*
X508893Y-101348D02*
Y-106680D01*
X512891D01*
X511558Y-104014D01*
Y-102681D01*
X512891Y-101348D01*
X515557D01*
X516890Y-102681D01*
Y-105347D01*
X515557Y-106680D01*
X508893Y-98683D02*
X514224D01*
X516890Y-96017D01*
X514224Y-93351D01*
X508893D01*
X510225Y-73408D02*
X508893Y-74741D01*
Y-77407D01*
X510225Y-78740D01*
X515557D01*
X516890Y-77407D01*
Y-74741D01*
X515557Y-73408D01*
X512891D01*
Y-76074D01*
X516890Y-70743D02*
X508893D01*
X516890Y-65411D01*
X508893D01*
Y-62745D02*
X516890D01*
Y-58746D01*
X515557Y-57414D01*
X510225D01*
X508893Y-58746D01*
Y-62745D01*
X13015Y-63752D02*
X14347Y-62419D01*
Y-59753D01*
X13015Y-58420D01*
X7683D01*
X6350Y-59753D01*
Y-62419D01*
X7683Y-63752D01*
X10349D01*
Y-61086D01*
X6350Y-66417D02*
X14347D01*
X6350Y-71749D01*
X14347D01*
Y-74415D02*
X6350D01*
Y-78414D01*
X7683Y-79746D01*
X13015D01*
X14347Y-78414D01*
Y-74415D01*
Y-86360D02*
X9016D01*
X6350Y-89026D01*
X9016Y-91692D01*
X14347D01*
X13015Y-99689D02*
X14347Y-98356D01*
Y-95690D01*
X13015Y-94357D01*
X7683D01*
X6350Y-95690D01*
Y-98356D01*
X7683Y-99689D01*
X13015Y-107686D02*
X14347Y-106354D01*
Y-103688D01*
X13015Y-102355D01*
X7683D01*
X6350Y-103688D01*
Y-106354D01*
X7683Y-107686D01*
D22*
X207210Y-106480D02*
X232210D01*
Y-56480D01*
X207210D02*
X232210D01*
X207210Y-106480D02*
Y-56480D01*
X378660Y-59890D02*
X403660D01*
X378660Y-109890D02*
Y-59890D01*
Y-109890D02*
X403660D01*
Y-59890D01*
X25920Y-54850D02*
X90920D01*
X25920Y-110250D02*
Y-54850D01*
Y-110250D02*
X90920D01*
Y-54850D01*
X432320Y-110250D02*
X497320D01*
Y-54850D01*
X432320D02*
X497320D01*
X432320Y-110250D02*
Y-54850D01*
M02*
