M48
;Layer_Color=9474304
;FILE_FORMAT=4:4
METRIC,LZ
;TYPE=PLATED
T1F00S00C0.7000
T2F00S00C0.7500
T3F00S00C0.8000
T4F00S00C1.2000
T5F00S00C1.3200
T6F00S00C1.5000
%
T01
X001651Y-0009239
Y-0007239
T02
X0021971Y-0009398
X0033147Y-0009112
X0039116Y-0009739
Y-0007239
X0033147Y-0007112
X0021971Y-0006898
T03
X0012065Y-0012446
Y-0002946
T04
X0005842Y-0009525
X0046482
Y-0006985
X0005842
T05
X0027813Y-0010551
Y-0008001
Y-0005451
T06
X0001143Y-0014859
X0050927
Y-0001143
X0001143
M30
